# xmcd CD database file
#
# Track frame offsets:
#	150
#	14414
#	28008
#	45799
#	63762
#	78165
#	92382
#	106842
#	123152
#	139231
#	156473
#	178860
#	193138
#	211031
#	225078
#	240473
#	258376
#	271402
#	287314
#	305293
#	320453
#
# Disc length: 4516 seconds
#
# Revision: 5
# Processed by: cddbd v1.5.2PL0 Copyright (c) Steve Scherf et al.
# Submitted via: CDex 2.21
#
DISCID=0511a215
DTITLE=Terri Clark - The Ultimate Collection
DYEAR=2008
DGENRE=Country
TTITLE0=Better Things To Do
TTITLE1=When Boy Meets Girl
TTITLE2=If I Were You
TTITLE3=Suddenly Single
TTITLE4=Poor, Poor Pitiful Me
TTITLE5=Emotional Girl
TTITLE6=Just The Same
TTITLE7=Now That I Found You
TTITLE8=You're Easy On The Eyes
TTITLE9=Everytime I Cry
TTITLE10=Unsung Hero
TTITLE11=A Little Gasoline
TTITLE12=No Fear
TTITLE13=Getting There
TTITLE14=I Just Wanna Be Mad
TTITLE15=Three Mississippi
TTITLE16=I Wanna Do It All
TTITLE17=Girls Lie Too
TTITLE18=The World Needs A Drink
TTITLE19=She Didn't Have Time
TTITLE20=Damn Right
EXTD=YEAR: 2008
EXTT0=
EXTT1=
EXTT2=
EXTT3=
EXTT4=
EXTT5=
EXTT6=
EXTT7=
EXTT8=
EXTT9=
EXTT10=
EXTT11=
EXTT12=
EXTT13=
EXTT14=
EXTT15=
EXTT16=
EXTT17=
EXTT18=
EXTT19=
EXTT20=
PLAYORDER=
